<svg id="visual" viewBox="0 0 540 960" width="540" height="960" xmlns="http://www.w3.org/2000/svg" xmlns:xlink="http://www.w3.org/1999/xlink" version="1.1"><rect x="0" y="0" width="540" height="960" fill="#020E3A"></rect><defs><linearGradient id="grad1_0" x1="0%" y1="100%" x2="100%" y2="0%"><stop offset="30%" stop-color="#313465" stop-opacity="1"></stop><stop offset="70%" stop-color="#313465" stop-opacity="1"></stop></linearGradient></defs><defs><linearGradient id="grad1_1" x1="0%" y1="100%" x2="100%" y2="0%"><stop offset="30%" stop-color="#313465" stop-opacity="1"></stop><stop offset="70%" stop-color="#222756" stop-opacity="1"></stop></linearGradient></defs><defs><linearGradient id="grad1_2" x1="0%" y1="100%" x2="100%" y2="0%"><stop offset="30%" stop-color="#121b48" stop-opacity="1"></stop><stop offset="70%" stop-color="#222756" stop-opacity="1"></stop></linearGradient></defs><defs><linearGradient id="grad1_3" x1="0%" y1="100%" x2="100%" y2="0%"><stop offset="30%" stop-color="#121b48" stop-opacity="1"></stop><stop offset="70%" stop-color="#020e3a" stop-opacity="1"></stop></linearGradient></defs><defs><linearGradient id="grad2_0" x1="0%" y1="100%" x2="100%" y2="0%"><stop offset="30%" stop-color="#313465" stop-opacity="1"></stop><stop offset="70%" stop-color="#313465" stop-opacity="1"></stop></linearGradient></defs><defs><linearGradient id="grad2_1" x1="0%" y1="100%" x2="100%" y2="0%"><stop offset="30%" stop-color="#222756" stop-opacity="1"></stop><stop offset="70%" stop-color="#313465" stop-opacity="1"></stop></linearGradient></defs><defs><linearGradient id="grad2_2" x1="0%" y1="100%" x2="100%" y2="0%"><stop offset="30%" stop-color="#222756" stop-opacity="1"></stop><stop offset="70%" stop-color="#121b48" stop-opacity="1"></stop></linearGradient></defs><defs><linearGradient id="grad2_3" x1="0%" y1="100%" x2="100%" y2="0%"><stop offset="30%" stop-color="#020e3a" stop-opacity="1"></stop><stop offset="70%" stop-color="#121b48" stop-opacity="1"></stop></linearGradient></defs><g transform="translate(540, 960)"><path d="M-243 0C-243.4 -35 -243.9 -69.9 -224.5 -93C-205.2 -116 -166 -127.2 -138.6 -138.6C-111.2 -150 -95.4 -161.8 -74.2 -179.2C-53.1 -196.7 -26.5 -219.8 0 -243L0 0Z" fill="#091541"></path><path d="M-182.2 0C-182.6 -26.2 -182.9 -52.5 -168.4 -69.7C-153.9 -87 -124.5 -95.4 -103.9 -103.9C-83.4 -112.5 -71.5 -121.3 -55.7 -134.4C-39.8 -147.5 -19.9 -164.9 0 -182.2L0 0Z" fill="#1a214f"></path><path d="M-121.5 0C-121.7 -17.5 -121.9 -35 -112.3 -46.5C-102.6 -58 -83 -63.6 -69.3 -69.3C-55.6 -75 -47.7 -80.9 -37.1 -89.6C-26.5 -98.3 -13.3 -109.9 0 -121.5L0 0Z" fill="#2a2d5e"></path><path d="M-60.7 0C-60.9 -8.7 -61 -17.5 -56.1 -23.2C-51.3 -29 -41.5 -31.8 -34.6 -34.6C-27.8 -37.5 -23.8 -40.4 -18.6 -44.8C-13.3 -49.2 -6.6 -55 0 -60.7L0 0Z" fill="#313465"></path></g><g transform="translate(0, 0)"><path d="M243 0C234.6 30.3 226.2 60.6 214.3 88.8C202.5 117 187.1 143.1 166.9 166.9C146.7 190.7 121.6 212.2 93 224.5C64.4 236.8 32.2 239.9 0 243L0 0Z" fill="#091541"></path><path d="M182.3 0C176 22.7 169.7 45.4 160.8 66.6C151.8 87.7 140.3 107.3 125.2 125.2C110 143 91.2 159.1 69.7 168.4C48.3 177.6 24.1 179.9 0 182.3L0 0Z" fill="#1a214f"></path><path d="M121.5 0C117.3 15.1 113.1 30.3 107.2 44.4C101.2 58.5 93.5 71.5 83.4 83.4C73.3 95.3 60.8 106.1 46.5 112.3C32.2 118.4 16.1 120 0 121.5L0 0Z" fill="#2a2d5e"></path><path d="M60.8 0C58.7 7.6 56.6 15.1 53.6 22.2C50.6 29.2 46.8 35.8 41.7 41.7C36.7 47.7 30.4 53 23.2 56.1C16.1 59.2 8 60 0 60.8L0 0Z" fill="#313465"></path></g></svg>