<svg id="visual" viewBox="0 0 1440 1080" width="1440" height="1080" xmlns="http://www.w3.org/2000/svg" xmlns:xlink="http://www.w3.org/1999/xlink" version="1.1"><rect x="0" y="0" width="1440" height="1080" fill="#020E3A"></rect><defs><linearGradient id="grad1_0" x1="25%" y1="0%" x2="100%" y2="100%"><stop offset="23.333333333333336%" stop-color="#313465" stop-opacity="1"></stop><stop offset="76.66666666666666%" stop-color="#313465" stop-opacity="1"></stop></linearGradient></defs><defs><linearGradient id="grad1_1" x1="25%" y1="0%" x2="100%" y2="100%"><stop offset="23.333333333333336%" stop-color="#313465" stop-opacity="1"></stop><stop offset="76.66666666666666%" stop-color="#262a5a" stop-opacity="1"></stop></linearGradient></defs><defs><linearGradient id="grad1_2" x1="25%" y1="0%" x2="100%" y2="100%"><stop offset="23.333333333333336%" stop-color="#1a214f" stop-opacity="1"></stop><stop offset="76.66666666666666%" stop-color="#262a5a" stop-opacity="1"></stop></linearGradient></defs><defs><linearGradient id="grad1_3" x1="25%" y1="0%" x2="100%" y2="100%"><stop offset="23.333333333333336%" stop-color="#1a214f" stop-opacity="1"></stop><stop offset="76.66666666666666%" stop-color="#0e1844" stop-opacity="1"></stop></linearGradient></defs><defs><linearGradient id="grad1_4" x1="25%" y1="0%" x2="100%" y2="100%"><stop offset="23.333333333333336%" stop-color="#020e3a" stop-opacity="1"></stop><stop offset="76.66666666666666%" stop-color="#0e1844" stop-opacity="1"></stop></linearGradient></defs><defs><linearGradient id="grad2_0" x1="0%" y1="0%" x2="75%" y2="100%"><stop offset="23.333333333333336%" stop-color="#313465" stop-opacity="1"></stop><stop offset="76.66666666666666%" stop-color="#313465" stop-opacity="1"></stop></linearGradient></defs><defs><linearGradient id="grad2_1" x1="0%" y1="0%" x2="75%" y2="100%"><stop offset="23.333333333333336%" stop-color="#262a5a" stop-opacity="1"></stop><stop offset="76.66666666666666%" stop-color="#313465" stop-opacity="1"></stop></linearGradient></defs><defs><linearGradient id="grad2_2" x1="0%" y1="0%" x2="75%" y2="100%"><stop offset="23.333333333333336%" stop-color="#262a5a" stop-opacity="1"></stop><stop offset="76.66666666666666%" stop-color="#1a214f" stop-opacity="1"></stop></linearGradient></defs><defs><linearGradient id="grad2_3" x1="0%" y1="0%" x2="75%" y2="100%"><stop offset="23.333333333333336%" stop-color="#0e1844" stop-opacity="1"></stop><stop offset="76.66666666666666%" stop-color="#1a214f" stop-opacity="1"></stop></linearGradient></defs><defs><linearGradient id="grad2_4" x1="0%" y1="0%" x2="75%" y2="100%"><stop offset="23.333333333333336%" stop-color="#0e1844" stop-opacity="1"></stop><stop offset="76.66666666666666%" stop-color="#020e3a" stop-opacity="1"></stop></linearGradient></defs><g transform="translate(1440, 0)"><path d="M0 495C-47.2 447 -94.4 399.1 -158.4 382.5C-222.5 365.9 -303.3 380.7 -350 350C-396.7 319.3 -409.3 243.1 -427.8 177.2C-446.2 111.3 -470.6 55.6 -495 0L0 0Z" fill="#07133f"></path><path d="M0 396C-37.8 357.6 -75.5 319.3 -126.7 306C-178 292.7 -242.6 304.6 -280 280C-317.4 255.5 -327.4 194.5 -342.2 141.7C-357 89 -376.5 44.5 -396 0L0 0Z" fill="#141c4a"></path><path d="M0 297C-28.3 268.2 -56.6 239.4 -95.1 229.5C-133.5 219.5 -182 228.4 -210 210C-238 191.6 -245.6 145.9 -256.7 106.3C-267.7 66.8 -282.4 33.4 -297 0L0 0Z" fill="#202554"></path><path d="M0 198C-18.9 178.8 -37.8 159.6 -63.4 153C-89 146.4 -121.3 152.3 -140 140C-158.7 127.7 -163.7 97.2 -171.1 70.9C-178.5 44.5 -188.2 22.3 -198 0L0 0Z" fill="#2b2f5f"></path><path d="M0 99C-9.4 89.4 -18.9 79.8 -31.7 76.5C-44.5 73.2 -60.7 76.1 -70 70C-79.3 63.9 -81.9 48.6 -85.6 35.4C-89.2 22.3 -94.1 11.1 -99 0L0 0Z" fill="#313465"></path></g><g transform="translate(0, 1080)"><path d="M0 -495C43.7 -438.6 87.4 -382.2 151.9 -366.8C216.5 -351.4 301.9 -376.9 350 -350C398.1 -323.1 408.9 -243.9 426.8 -176.8C444.8 -109.7 469.9 -54.9 495 0L0 0Z" fill="#07133f"></path><path d="M0 -396C34.9 -350.9 69.9 -305.8 121.5 -293.4C173.2 -281.1 241.5 -301.5 280 -280C318.5 -258.5 327.1 -195.1 341.5 -141.4C355.8 -87.8 375.9 -43.9 396 0L0 0Z" fill="#141c4a"></path><path d="M0 -297C26.2 -263.2 52.4 -229.3 91.2 -220.1C129.9 -210.8 181.1 -226.1 210 -210C238.9 -193.9 245.3 -146.3 256.1 -106.1C266.9 -65.8 281.9 -32.9 297 0L0 0Z" fill="#202554"></path><path d="M0 -198C17.5 -175.4 34.9 -152.9 60.8 -146.7C86.6 -140.5 120.8 -150.8 140 -140C159.2 -129.3 163.6 -97.5 170.7 -70.7C177.9 -43.9 188 -21.9 198 0L0 0Z" fill="#2b2f5f"></path><path d="M0 -99C8.7 -87.7 17.5 -76.4 30.4 -73.4C43.3 -70.3 60.4 -75.4 70 -70C79.6 -64.6 81.8 -48.8 85.4 -35.4C89 -21.9 94 -11 99 0L0 0Z" fill="#313465"></path></g></svg>