<svg xmlns="http://www.w3.org/2000/svg" viewBox="0 0 362.77 534.89"><defs><style>.cls-1{fill:#f2c3bb;}.cls-2{fill:#e0a4ab;}.cls-3{fill:#121e21;}.cls-4{fill:#22393d;}.cls-5{fill:#a130dc;}.cls-6{fill:#822abc;}.cls-7{fill:#ffcdc2;}.cls-8{fill:#414042;}.cls-9{fill:#dd6680;}</style></defs><g id="Layer_2" data-name="Layer 2"><g id="Layer_1-2" data-name="Layer 1"><path class="cls-1" d="M147.94,78.25s-15-25.8-21.44-37c-3.84-6.65-6.87-11.35-6.89-16.75.07-2.95,3-14.38,2.45-16.26-.65-3.37-3.35-4.45-5.7-4.85l-.09,0a5.31,5.31,0,0,0-1.42-.17,9.09,9.09,0,0,0-2.81.13,2.7,2.7,0,0,0-.6-2.22c-.57-1.33-2.16-1.5-3.88-.43-.89.54-1.36,1.87-1.53,3.37a1.75,1.75,0,0,0-.36-.36c-.72-1.25-2.33-1.22-3.9,0a3.51,3.51,0,0,0-1,2.28,2.44,2.44,0,0,0-.33-.23c-.92-1.11-2.5-.82-3.85.69a3.09,3.09,0,0,0-.64,1.87l-.13-.07c-.91-1.12-2.49-.83-3.84.68-1.67,1.87.18,7.31,1.84,9,3.53,7.56,9.59,9.22,12,16.09,1.28,3.68,22.66,55.34,22.66,55.34l19.51-10.2-.44-.68Z"/><path class="cls-2" d="M94,18a1.93,1.93,0,0,0,2.16-.28,3.28,3.28,0,0,0,.46-2.16,23.15,23.15,0,0,0-.94-4.8.82.82,0,0,1,1.57-.48l0,.08a17.44,17.44,0,0,0,1.29,3.07,5.21,5.21,0,0,0,.85,1.17c.34.29.35.16.33.18a1.91,1.91,0,0,0,.32-.95,9.05,9.05,0,0,0,.1-1.59,27.25,27.25,0,0,0-.31-3.36l1.83-.31a12,12,0,0,0,1,3.39,1.69,1.69,0,0,0,.82.91.65.65,0,0,0,.48-.05,1.2,1.2,0,0,0,.32-.4,15.61,15.61,0,0,0,1.09-3.52c.26-1.25.51-2.51.73-3.79a31.7,31.7,0,0,1,0,3.9,13.51,13.51,0,0,1-.68,4,2.06,2.06,0,0,1-.86,1.09,2.11,2.11,0,0,1-1.38.27,2.45,2.45,0,0,1-1.25-.64,4.74,4.74,0,0,1-.74-.92,12.43,12.43,0,0,1-1.36-3.93.93.93,0,0,1,1.81-.39l0,.07a21.39,21.39,0,0,1,.44,3.67,10.71,10.71,0,0,1-.09,1.94,4,4,0,0,1-.27,1.06,2.6,2.6,0,0,1-.82,1.15,2,2,0,0,1-1.64.35A2.56,2.56,0,0,1,98.08,16a5.89,5.89,0,0,1-1.19-1.71,17.49,17.49,0,0,1-1.22-3.52l1.59-.4a19.3,19.3,0,0,1,.38,5.22,3.88,3.88,0,0,1-1.08,2.55,1.81,1.81,0,0,1-1.38.36A3.07,3.07,0,0,1,94,18Z"/><path class="cls-2" d="M113.08,3.72c-1.29,1.25-2.56,2.5-3.73,3.81a23,23,0,0,0-1.61,2,6,6,0,0,0-1,2.09,2.34,2.34,0,0,0,0,.93c0,.1,0,0,0,0s0,0,.1,0a7.64,7.64,0,0,0,2.13-.74c1.6-.78,3.32-1.42,5-2.12l5.4-2.28-4.42,3.9a21.69,21.69,0,0,0-2.32,2.37,14.51,14.51,0,0,0-1.85,2.72,5.85,5.85,0,0,0-.76,3.06,4.67,4.67,0,0,0,.43,1.56,7.28,7.28,0,0,0,1,1.39,4.62,4.62,0,0,1-2.22-2.81,6.33,6.33,0,0,1,.3-3.73,14,14,0,0,1,1.75-3.24,20,20,0,0,1,2.4-2.76l1,1.62-4.86,2.11c-.42.18-.85.36-1.31.52a4.7,4.7,0,0,1-1.63.33,2.16,2.16,0,0,1-1.17-.35,1.86,1.86,0,0,1-.68-1.13,3.92,3.92,0,0,1,.13-1.72,6.77,6.77,0,0,1,1.52-2.58,15.73,15.73,0,0,1,2-1.93A25.86,25.86,0,0,1,113.08,3.72Z"/><path class="cls-1" d="M306.11,78.25s15-25.8,21.44-37c3.83-6.65,6.87-11.35,6.89-16.75-.08-2.95-3-14.38-2.45-16.26.65-3.37,3.35-4.45,5.69-4.85l.1,0a5.31,5.31,0,0,1,1.42-.17,9.09,9.09,0,0,1,2.81.13,2.7,2.7,0,0,1,.6-2.22c.57-1.33,2.16-1.5,3.88-.43.89.54,1.36,1.87,1.53,3.37a1.75,1.75,0,0,1,.36-.36c.72-1.25,2.33-1.22,3.9,0a3.51,3.51,0,0,1,1,2.28,2.44,2.44,0,0,1,.33-.23c.92-1.11,2.5-.82,3.85.69a3.09,3.09,0,0,1,.64,1.87l.13-.07c.91-1.12,2.49-.83,3.84.68,1.67,1.87-.18,7.31-1.84,9-3.53,7.56-9.6,9.22-12,16.09C347,37.7,325.62,89.36,325.62,89.36l-19.51-10.2.43-.68Z"/><path class="cls-2" d="M360.07,18a3.06,3.06,0,0,1-1.21.51,1.8,1.8,0,0,1-1.37-.36,3.83,3.83,0,0,1-1.08-2.55,19.3,19.3,0,0,1,.38-5.22l1.59.4a16.92,16.92,0,0,1-1.23,3.52A5.85,5.85,0,0,1,356,16a2.56,2.56,0,0,1-1.21.69,2,2,0,0,1-1.64-.35,2.6,2.6,0,0,1-.82-1.15,4,4,0,0,1-.27-1.06,10.71,10.71,0,0,1-.09-1.94,21.39,21.39,0,0,1,.44-3.67l0-.07a.93.93,0,0,1,1.81.39,12.21,12.21,0,0,1-1.37,3.93,4.33,4.33,0,0,1-.73.92,2.45,2.45,0,0,1-1.25.64,2.1,2.1,0,0,1-1.38-.27,2.06,2.06,0,0,1-.86-1.09,13.51,13.51,0,0,1-.68-4,31.7,31.7,0,0,1,0-3.9c.22,1.28.46,2.54.73,3.79a15.12,15.12,0,0,0,1.09,3.52,1.2,1.2,0,0,0,.32.4.65.65,0,0,0,.48.05,1.64,1.64,0,0,0,.81-.91,11.67,11.67,0,0,0,1-3.39l1.83.31a25.44,25.44,0,0,0-.31,3.36,8.18,8.18,0,0,0,.1,1.59,1.91,1.91,0,0,0,.32.95s0,.11.33-.18a5.21,5.21,0,0,0,.85-1.17,18.23,18.23,0,0,0,1.29-3.07l0-.08a.82.82,0,0,1,1-.52.83.83,0,0,1,.53,1,23.15,23.15,0,0,0-.94,4.8,3.34,3.34,0,0,0,.45,2.16A2,2,0,0,0,360.07,18Z"/><path class="cls-2" d="M341,3.72a25.86,25.86,0,0,1,4.51,3,15.73,15.73,0,0,1,2,1.93A6.9,6.9,0,0,1,349,11.24a3.92,3.92,0,0,1,.13,1.72,1.86,1.86,0,0,1-.68,1.13,2.16,2.16,0,0,1-1.17.35,4.7,4.7,0,0,1-1.63-.33c-.46-.16-.89-.34-1.31-.52l-4.86-2.11,1-1.62a20.73,20.73,0,0,1,2.4,2.76,14,14,0,0,1,1.75,3.24,6.33,6.33,0,0,1,.3,3.73,4.6,4.6,0,0,1-2.23,2.81,6.92,6.92,0,0,0,1-1.39,4.42,4.42,0,0,0,.42-1.56,5.74,5.74,0,0,0-.75-3.06,14.1,14.1,0,0,0-1.86-2.72,20.74,20.74,0,0,0-2.31-2.37l-4.42-3.9,5.4,2.28c1.66.7,3.38,1.34,5,2.12a7.64,7.64,0,0,0,2.13.74c.13,0,.13,0,.1,0s0,.1,0,0a2.34,2.34,0,0,0,0-.93,6.13,6.13,0,0,0-1-2.09,23,23,0,0,0-1.61-2C343.53,6.22,342.26,5,341,3.72Z"/><path class="cls-3" d="M146.08,470.5c-.24,4,24.39,57.94,29.36,61.72s11.59,5,10.88-6.15-3.08-29.33,4.49-39.5,14.9-32.17-3.78-35S146.31,466.48,146.08,470.5Z"/><path class="cls-3" d="M85.37,405.15s-26.12-10.13-34-5.49c-5.48,3.24-35.66,24.92-46.12,33.11C-3,439.24-3,456.19,15.7,454.29s47.8-26.64,60.05-19C80.17,438,85.37,405.15,85.37,405.15Z"/><path class="cls-3" d="M242.89,428.14c-12.87,5.93-42.48,19.27-61.79,25.61a7,7,0,0,0-2.81,11.46h0a7.06,7.06,0,0,1,1.6,2.63l6.51,19.4A7,7,0,0,0,196,491.3c12.85-6.21,40.86-19.86,65.33-32.51,18.91-9.77,32.22-21.64,32.21-34.66,0-25.57-10.83-60.86-18.22-128.37-10.48-95.65-86.34-9.43-84.49-.56,1.6,7.65,43.8,98.68,55.42,123.68A7,7,0,0,1,242.89,428.14Z"/><path class="cls-4" d="M179.39,295.2s-7.64,67.7-12.61,121.85c0,0-58-5-91.75-18.82l-7.81,41.51s98.92,29.43,117.09,29.44c31.22,0,59.81-150,59.81-150s17-37.25-19.42-30.25C203.19,293,179.39,295.2,179.39,295.2Z"/><path class="cls-5" d="M303.47,79.75s-34.45,53.58-43,61.65c-14.34,13.5-34.78,9-34.78,9s-5.3,108.25,2.27,157.22l7.8,17.76s28.33-1.25,50.05-7.94c0,0-12.77-108.66-4.26-128.55s43.71-96.35,43.71-96.35Z"/><polygon class="cls-6" points="330.09 89.36 305.29 72.82 298.37 82.04 324.87 99.55 330.09 89.36"/><path class="cls-5" d="M151.78,79.75s23.72,45.77,37.34,59.65c15.83,16.11,39.75,10.5,39.75,10.5s7.12,126.24-.45,175.21c0,0-27.44,2.55-60.55-7.65,0,0,12.77-108.66,4.25-128.55S127.66,93,127.66,93Z"/><path class="cls-2" d="M208.37,155.4s12.95,6.89,14.14,9.49,7.09,22.23,7.09,22.23,3.31-23.41,4.5-24.83c.46-.56,3.82-.22,5.91-2,3.26-2.8,5.66-8.22,6.39-10.53,1.18-3.78,1.65-17.5,1.65-17.5S211.68,113,205.48,120,208.37,155.4,208.37,155.4Z"/><path class="cls-7" d="M197.18,127.75s15.46,25.22,40,19.4c16.84-4,16-25.63,14-33.83-1.66-6.75-5.46-19.15-1.89-25.3,0,0-35.93-16.29-53.69,9.46C182.78,116,197.18,127.75,197.18,127.75Z"/><path class="cls-8" d="M203.82,119.71S195.18,96.7,217,94.4,261.37,107,260.43,75.9c0,0-3,4.83-27.35-3.08-13.32-4.33-34.37-1-42.71,13.37-9.5,16.42-4.39,36.59,6.25,47.46,5.55,5.66,8.38,8.87,8.38,8.87s.16-2.43-1.59-12.93a9.3,9.3,0,0,1-5.08-1.26c-2.91-1.68-5.82-5.38-4-10.35.83-2.3,3.32-2.56,4.95-2.07C202,116.74,203.82,119.71,203.82,119.71Z"/><path class="cls-6" d="M204.87,142l-3.74,8.59a4.4,4.4,0,0,0,.4,4.24l12.34,18s6.88-6.25,8.64-7.88C222.51,164.89,210,145.15,204.87,142Z"/><path class="cls-6" d="M234.1,162.29s7.33,6.15,7.68,8.63l11.06-15.87a5.72,5.72,0,0,0-.1-6.67l-5.21-7C245,145.41,240.72,150.08,234.1,162.29Z"/><polygon class="cls-6" points="123.19 89.4 149.94 73.21 156.36 82.03 127.9 100.68 123.19 89.4"/><path class="cls-6" d="M229.93,306.59h0a.5.5,0,0,1-.49-.52c.73-32.05-.32-118.08-.33-118.94a.51.51,0,0,1,.5-.51h0a.5.5,0,0,1,.5.5c0,.86,1.06,86.9.33,119A.51.51,0,0,1,229.93,306.59Z"/><path class="cls-9" d="M233.08,137.68c6.1-1.06,9.65-7.18,8.41-10.91s-21.87-.36-21.26,4.27C220.65,134.22,225.21,139,233.08,137.68Z"/><path class="cls-8" d="M243.61,108a16.79,16.79,0,0,0-4.6,0,13,13,0,0,0-2.1.54c-.37.09-.72.27-1.12.39a10.34,10.34,0,0,1-1.23.43,6,6,0,0,1,.63-1.21,5.87,5.87,0,0,1,.95-1,5.39,5.39,0,0,1,2.55-1.14,5.29,5.29,0,0,1,2.79.28A4.29,4.29,0,0,1,243.61,108Z"/><path class="cls-8" d="M221.32,110.67a13.86,13.86,0,0,0-5.2-.21,19.65,19.65,0,0,0-2.44.65c-.42.13-.84.3-1.29.44A11.3,11.3,0,0,1,211,112a7.71,7.71,0,0,1,.83-1.27,8.36,8.36,0,0,1,1.11-1,7,7,0,0,1,2.85-1.23,6.27,6.27,0,0,1,3.13.29A4.57,4.57,0,0,1,221.32,110.67Z"/><path class="cls-8" d="M244.13,102.24c-1.2-.07-2.2-.15-3.13-.18a11.44,11.44,0,0,0-2.49.18,8,8,0,0,0-2.27.8c-.43.15-.79.47-1.26.69s-.87.57-1.45.84a5.78,5.78,0,0,1,.29-1.75,5.68,5.68,0,0,1,.88-1.57,5.39,5.39,0,0,1,3.24-2,5.81,5.81,0,0,1,3.68.5A5.31,5.31,0,0,1,244.13,102.24Z"/><path class="cls-8" d="M221.32,106.21c-1.25-.33-2.32-.61-3.34-.81a11.09,11.09,0,0,0-2.82-.2,9.72,9.72,0,0,0-2.74.57l-.38.1-.36.16c-.25.1-.51.2-.78.29a15.67,15.67,0,0,1-1.71.67,7.29,7.29,0,0,1,.74-1.78c.18-.26.37-.52.58-.77a3.57,3.57,0,0,1,.7-.7,6.22,6.22,0,0,1,3.77-1.53,6.49,6.49,0,0,1,3.92,1A5.88,5.88,0,0,1,221.32,106.21Z"/><path class="cls-2" d="M228.87,111.81a7.86,7.86,0,0,1,2.75,1.51,7.27,7.27,0,0,1,2,2.55,3.9,3.9,0,0,1,.38,1.85,2.72,2.72,0,0,1-.85,1.86,3.83,3.83,0,0,1-3.21.82,6.91,6.91,0,0,0,2-1.84,1.47,1.47,0,0,0,.16-.86,4,4,0,0,0-.31-1,18.1,18.1,0,0,0-1.37-2.31C229.94,113.56,229.38,112.75,228.87,111.81Z"/><path class="cls-2" d="M202.85,126.48a4,4,0,0,1-3.08.21,7,7,0,0,1-2.69-1.69,6.2,6.2,0,0,1-1.75-2.75,4,4,0,0,1,.54-3.34,3.15,3.15,0,0,1,3.15-1.35,3,3,0,0,1,1.55.9,5.67,5.67,0,0,1,.92,1.37A5.3,5.3,0,0,1,202,123a2.36,2.36,0,0,1-.29.79,1,1,0,0,1-.71.52c-.65.07-1-.42-1.34-.8.38.32.86.66,1.28.54s.54-.66.56-1.12a5.15,5.15,0,0,0-.73-2.74,3.13,3.13,0,0,0-1.94-1.7,2.22,2.22,0,0,0-2.16,1,3.07,3.07,0,0,0-.45,2.53,5.85,5.85,0,0,0,1.39,2.46,7.27,7.27,0,0,0,2.31,1.78A4.13,4.13,0,0,0,202.85,126.48Z"/><path class="cls-2" d="M201.89,122.53c-.33-.61-.88-1.18-1.42-1a1.15,1.15,0,0,0-.85,1.21,3.12,3.12,0,0,0,.86,1.6,3.36,3.36,0,0,0,1.65,1.09,2.54,2.54,0,0,1-2.07-.65,3,3,0,0,1-1.17-2,1.68,1.68,0,0,1,1.5-1.81,1.18,1.18,0,0,1,1.1.5A2.12,2.12,0,0,1,201.89,122.53Z"/></g></g></svg>